<svg xmlns="http://www.w3.org/2000/svg" width="600" height="600" viewBox="0 0 600 600">
  <defs>
    <linearGradient id="wood" x1="0" x2="1" y1="0" y2="0">
      <stop offset="0%" stop-color="#d4a373"/>
      <stop offset="50%" stop-color="#b08968"/>
      <stop offset="100%" stop-color="#d4a373"/>
    </linearGradient>
  </defs>
  <rect width="600" height="600" fill="url(#wood)"/>
  <path d="M0 80 C120 60, 240 100, 360 80 C480 60, 600 100, 600 100" fill="none" stroke="#9c6644" stroke-width="6" opacity="0.6"/>
  <path d="M0 200 C140 180, 260 220, 380 200 C500 180, 600 220, 600 220" fill="none" stroke="#9c6644" stroke-width="5" opacity="0.6"/>
  <path d="M0 320 C120 300, 240 340, 360 320 C480 300, 600 340, 600 340" fill="none" stroke="#9c6644" stroke-width="6" opacity="0.6"/>
  <path d="M0 440 C140 420, 260 460, 380 440 C500 420, 600 460, 600 460" fill="none" stroke="#9c6644" stroke-width="5" opacity="0.6"/>
</svg>
